<svg xmlns="http://www.w3.org/2000/svg" xmlns:xlink="http://www.w3.org/1999/xlink" style="display: none">
  <symbol id="logo__mark" width="30" height="36">
    <g fill="none" fill-rule="evenodd" stroke="#FFF" stroke-width="2" stroke-linejoin="round">
      <path d="M14.6 8l13.6 13.6-13.6 13.6L1 21.6z"/>
      <path d="M21.4 1l6.8 6.8-13.6 13.6L1 7.8 7.8 1l6.8 6.8z"/>
    </g>
  </symbol>
  <symbol id="logo__type">
    <path fill-rule="evenodd" d="M.4 15.2c1 0 1.2-.3 1.2-1.2v-4c0-1-.2-1.3-1.1-1.3H0v-.2l.2-1.7 5.4-.9.3.3-.3 2h.2c1-1.4 2-2 3.2-2h1v.3s-.4 2.8-.5 5.3H7.3c0-1.6-.1-2-.7-2-.3 0-.6 0-.8.3l-.3 4.2c0 .5.2.7.7.7l1.3-.1.1.2-.3 2.1-3.7-.1H0l.3-2zm15.3 2.1c-3.3 0-5.3-2-5.3-5.4 0-3.8 2.1-6 5.8-6 3.4 0 5.2 2 5.2 5.5 0 3.7-2.1 6-5.7 6zm.2-2.4c.8 0 1.1-.5 1.1-2.2 0-3.1-.3-4-1.2-4-.8 0-1 .5-1 2.1 0 3.2.2 4 1.1 4zm11.5 2.4c-3.3 0-5.3-2-5.3-5.4 0-3.8 2.1-6 5.8-6 3.4 0 5.2 2 5.2 5.5 0 3.7-2.1 6-5.7 6zm.2-2.4c.9 0 1.1-.5 1.1-2.2 0-3.1-.3-4-1.2-4-.8 0-1 .5-1 2.1 0 3.2.2 4 1.1 4zm13 .7a9.6 9.6 0 0 1-2.5 1.6c-2.7 0-4.3-1.9-4.3-5.2 0-3.7 2.2-6 5.9-6h.7V4.3c0-1.1-.2-1.4-1.1-1.4h-.6l.2-2 6-.8.2.5a54 54 0 0 0-.8 12.8c0 .5.2.8.5.8.4 0 .7-.2.7-.2l.4.7s-1.1 2.2-2.6 2.7c-1.6 0-2.5-.5-2.6-1.6h-.2zm-.2-1.5V8.9s-.5-.3-1-.3c-.9 0-1.3.8-1.3 2.4 0 2.3.4 3.3 1.4 3.3.6 0 .9-.2.9-.2zm10-3.6l1.9-.1c.2 0 .2-.1.2-.4 0-1-.3-1.5-.9-1.5-1 0-1.3.6-1.3 2zm5.5 1.8h-5.4c.2 1.5 1 2 2.2 2 1.5 0 2.8-.6 2.8-.6h.2l.5 1.8s-2.4 1.8-4.5 1.8c-3.6 0-5.6-2-5.6-5.5 0-3.6 2.3-5.9 5.9-5.9 2.9 0 4.4 1.6 4.4 4.6l-.2 1.6-.3.2zm31.2 4.9l.3-2c.9 0 1.1-.3 1.1-1.2v-4c0-1-.2-1.3-1-1.3H87l-.1-.2.1-1.7 5.5-.9.2.3-.2 1.7h.1c1-.9 2-2 2.5-2C97.7 6 99 7 99 9l-.5 5.4c0 .6.2.9.7.9h.5l-.2 2-3-.1h-2.8l.2-2c.6 0 .8-.3.8-1v-3.3c0-1.1-.2-1.5-1-1.5-.3 0-.7.2-1 .5a209 209 0 0 0-.2 4.6c0 .5 0 .7.5.7h.4l-.2 2H87zm-26.4.1c-2.1 0-3.5-.7-3.5-.7l-.2-.4.3-3h1.9c0 1 .8 1.8 1.8 1.8.5 0 .9-.3.9-.6 0-.5-.4-.7-1.9-1.4-2-.7-2.8-1.7-2.8-3.2 0-2.4 2.2-3.9 5.4-3.9 1.8 0 2.9.5 2.9.5l.2.4-.4 3.2h-1.8c0-1.1-.5-1.6-1.3-1.6-.6 0-1 .3-1 .7 0 .4.4.7 1.2 1 2.9 1.2 3.6 2 3.6 3.6 0 2.1-2.2 3.6-5.3 3.6zm9.8 1.5c1.4 0 2.3.9 2.3 2.4 0 1.4-.8 2.2-2.1 2.2-1.5 0-2.4-1-2.4-2.4s.8-2.2 2.2-2.2zm-3.7-4.1h.5c1 0 1.1-.2 1.1-1.3v-4c0-.8-.4-1.2-1.3-1.3l-.3-2a36.2 36.2 0 0 0 6.5.1l.3 2H73c-.5 0-.6.2-.6.7 0 4.6.2 7.3.5 8l-.3.5-5.6-.8-.2-2zm13.7-.5l-1.5-.1-.2.5c0 .4.6.6 1.7.6 4.7 0 6.2.8 6.2 3s-3.2 4.4-6.5 4.4c-2.9 0-4.8-1.4-4.8-3.4.5-.5 2.3-1.3 2.3-1.3v-.1c-1.5-.3-2.3-1.2-2.3-2.5.7-.7 2-1.6 2-1.6v-.2a3.5 3.5 0 0 1-1.8-3.3c0-2.6 2-4.3 5.3-4.3l2.5.2c1 0 3.3-.9 3.3-.9l.2.2-.4 2.3h-1.3L85 8c.6.6.9 1.3.9 2.2 0 2.5-2.2 4.1-5.5 4.1zm.3-2.1c.8 0 1-.6 1-2 0-1.3-.3-1.9-1.2-1.9-.6 0-1 .7-1 2s.4 1.9 1.2 1.9zm.2 8.1c1 0 1.8-.4 1.8-1 0-.5 0-.5-3.1-1 0 0-.3.5-.3 1 0 .6.7 1 1.6 1zm29.5-1l.2.4-.3 2.5H100l-.3-.4.3-2.4h8.4l2-.1z"/>
  </symbol>
  <symbol id="menu" width="28" height="28">
    <path fill="#FFF" fill-rule="evenodd" d="M6.5 20l.4 5.9H5.1V23h-.2l-.8 2.3H2.6L2 23h-.1l-.1.8v2H0L.6 20h2.3l.2.9.3 1.7h.1l.4-1.7.2-.9h2.4zm5.2 4.3l1.5-.1.1.1-.1 1.6H8.9V20h4.4v1.7h-2.5v.5h1.9v1.6h-1.9v.5h.9zm9-4.3l-.1 4v1.9h-2.1L17 23.2v2.7h-1.8V20h2.2l1.4 2.7h.1v-2.6l1.8-.1zm7.3 0v4c0 1.3-1 2-2.7 2-1.6 0-2.5-.7-2.5-2v-4h2l-.1 3.7c0 .5.2.6.7.6.5 0 .7-.1.7-.6L26 20h2zM0 10h28v6H0zM0 0h28v6H0z"/>
  </symbol>
  <symbol id="coin" width="28" height="28">
    <circle cx="14" cy="14" r="14" fill="#FFF"/>
    <circle cx="14" cy="14" r="10" class="coin__inner" fill="inherit"/>
    <circle cx="14" cy="14" r="8" class="coin__outer" fill="#FFF"/>
  </symbol>
  <symbol id="link" width="28" height="28">
    <path d="M10 24a8 8 0 1 1 0-16 8 8 0 0 1 0 16zm0-2a6 6 0 1 0 0-12 6 6 0 0 0 0 12z" fill="currentColor"/>
    <path d="M18 20a8 8 0 1 1 0-16 8 8 0 0 1 0 16zm0-2a6 6 0 1 0 0-12 6 6 0 0 0 0 12z" fill="currentColor"/>
  </symbol>
  <symbol id="twitter" width="28" height="28">
    <path d="M8.805 25.752c10.567 0 16.346-8.754 16.346-16.346 0-.248 0-.496-.017-.742A11.688 11.688 0 0 0 28 5.69c-1.048.465-2.16.77-3.3.904a5.765 5.765 0 0 0 2.526-3.177 11.512 11.512 0 0 1-3.648 1.394 5.75 5.75 0 0 0-9.79 5.24 16.31 16.31 0 0 1-11.84-6.003 5.749 5.749 0 0 0 1.78 7.669 5.702 5.702 0 0 1-2.608-.72v.074a5.747 5.747 0 0 0 4.609 5.631 5.736 5.736 0 0 1-2.594.099 5.751 5.751 0 0 0 5.367 3.989A11.527 11.527 0 0 1 0 23.171a16.264 16.264 0 0 0 8.805 2.576" fill="currentColor" fill-rule="evenodd"/>
  </symbol>
  <symbol id="linkedin" width="18" height="18">
    <path fill="currentColor" fill-rule="evenodd" d="M23.86 23.86h-4.152V17.36c0-1.55-.027-3.543-2.158-3.543-2.161 0-2.491 1.689-2.491 3.433v6.609h-4.148V10.497h3.98v1.827h.058c.554-1.05 1.909-2.158 3.929-2.158 4.206 0 4.983 2.766 4.983 6.365v7.329zM6.23 8.672a2.407 2.407 0 1 1 0-4.817 2.408 2.408 0 0 1 0 4.817zM4.149 23.86h4.157V10.497H4.15V23.86zM25.929 0H2.065C.925 0 0 .904 0 2.02v23.96C0 27.095.926 28 2.065 28H25.93C27.07 28 28 27.096 28 25.98V2.02C28 .903 27.07 0 25.929 0z"/>
  </symbol>
</svg>
